<svg width="24" height="24" viewBox="0 0 24 24" fill="none" xmlns="http://www.w3.org/2000/svg">
<path d="M15.5 22.5V8.5C15.5 7.21134 16.5447 6.16667 17.8333 6.16667H20.1667C21.4553 6.16667 22.5 7.21134 22.5 8.5V20.1667C22.5 21.4553 21.4553 22.5 20.1667 22.5H15.5ZM15.5 22.5H8.5M15.5 22.5V3.83333C15.5 2.54467 14.4553 1.5 13.1667 1.5H10.8333C9.54467 1.5 8.5 2.54467 8.5 3.83333V22.5M8.5 22.5H3.83333C2.54467 22.5 1.5 21.4553 1.5 20.1667V13.1667C1.5 11.878 2.54467 10.8333 3.83333 10.8333H6.16667C7.45533 10.8333 8.5 11.878 8.5 13.1667V22.5Z" stroke="#171717" stroke-width="2" stroke-linecap="round" stroke-linejoin="round"/>
</svg>
