<svg width="24" height="24" viewBox="0 0 24 24" fill="none" xmlns="http://www.w3.org/2000/svg">
<path fill-rule="evenodd" clip-rule="evenodd" d="M12 2.66634C6.84535 2.66634 2.66668 6.84502 2.66668 11.9997C2.66668 17.1543 6.84535 21.333 12 21.333C17.1547 21.333 21.3333 17.1543 21.3333 11.9997C21.3333 6.84502 17.1547 2.66634 12 2.66634ZM0.333344 11.9997C0.333344 5.55635 5.55669 0.333008 12 0.333008C18.4433 0.333008 23.6667 5.55635 23.6667 11.9997C23.6667 18.443 18.4433 23.6663 12 23.6663C5.55669 23.6663 0.333344 18.443 0.333344 11.9997ZM12 7.33301C9.42268 7.33301 7.33334 9.42235 7.33334 11.9997C7.33334 14.577 9.42268 16.6663 12 16.6663C14.5773 16.6663 16.6667 14.577 16.6667 11.9997C16.6667 9.42235 14.5773 7.33301 12 7.33301ZM5.00001 11.9997C5.00001 8.13368 8.13402 4.99967 12 4.99967C15.866 4.99967 19 8.13368 19 11.9997C19 15.8657 15.866 18.9997 12 18.9997C8.13402 18.9997 5.00001 15.8657 5.00001 11.9997ZM9.66668 11.9997C9.66668 10.711 10.7113 9.66634 12 9.66634C13.2887 9.66634 14.3333 10.711 14.3333 11.9997C14.3333 13.2883 13.2887 14.333 12 14.333C10.7113 14.333 9.66668 13.2883 9.66668 11.9997Z" fill="#171717"/>
</svg>
