<svg width="72" height="72" viewBox="0 0 72 72" fill="none" xmlns="http://www.w3.org/2000/svg">
<rect width="72" height="72" rx="8.42927" fill="black"/>
<path d="M26.5168 40.6015C26.5168 42.463 25.9197 44.0084 24.7256 45.2025C23.5314 46.3967 21.9509 46.9937 19.9841 46.9937H13.6973V24.6211H20.1246C21.986 24.6211 23.5314 25.2181 24.7256 26.4123C25.9197 27.6064 26.5168 29.1518 26.5168 31.0133V40.6015ZM22.5129 40.6015V31.0133C22.5129 30.2055 22.2319 29.6084 21.7051 29.222C21.1782 28.8357 20.6514 28.625 20.0895 28.625H17.7012V43.025H20.1246C20.6514 43.025 21.1782 42.8142 21.7402 42.4279C22.2319 42.0064 22.5129 41.4093 22.5129 40.6015ZM40.109 46.9937H31.7148C30.907 46.9937 30.2397 46.7128 29.7129 46.1859C29.186 45.6591 28.9051 44.9918 28.9051 44.184V27.3957C28.9051 26.5879 29.186 25.9206 29.7129 25.3937C30.2397 24.8669 30.907 24.5859 31.7148 24.5859H40.109V28.5898H32.909V33.7879H37.2992V37.7918H32.909V42.9898H40.109V46.9937ZM50.8914 46.9937C49.5568 46.9937 48.5031 46.0454 47.6953 44.184L42.4973 24.5859H46.8875L50.8914 39.9694L54.8953 24.6211H59.2856L54.0875 44.2191C53.3148 46.0806 52.226 46.9937 50.8914 46.9937Z" fill="white"/>
</svg>
