<svg width="38" height="30" viewBox="0 0 38 30" fill="none" xmlns="http://www.w3.org/2000/svg">
<path d="M26.3337 20.9998L25.2731 22.0605L26.3337 20.9998ZM11.6678 20.9998L10.6072 19.9391L11.6678 20.9998ZM10.7005 22.1158L11.9011 23.015L10.7005 22.1158ZM15.2971 28.3328V29.8328V28.3328ZM27.301 22.1158L26.1005 23.015L27.301 22.1158ZM22.7045 28.3328V26.8328V28.3328ZM35.465 16.7958L36.6655 15.8966L35.465 16.7958ZM30.8684 13.3264L29.9665 12.1279C29.5304 12.456 29.3069 12.9952 29.3831 13.5356C29.4592 14.0761 29.8229 14.5325 30.3327 14.7275L30.8684 13.3264ZM32.3005 21.2926C31.5103 21.5412 31.0712 22.3833 31.3197 23.1736C31.5683 23.9638 32.4105 24.4029 33.2007 24.1543L32.3005 21.2926ZM24.9054 0.437982C24.1052 0.652395 23.6303 1.4749 23.8447 2.2751C24.0591 3.0753 24.8816 3.55017 25.6818 3.33576L24.9054 0.437982ZM32.7976 5.30812L31.4492 5.96523L32.7976 5.30812ZM2.53611 16.7958L1.33555 15.8966H1.33555L2.53611 16.7958ZM7.13267 13.3264L7.66839 14.7275C8.17819 14.5325 8.54187 14.0761 8.618 13.5356C8.69413 12.9952 8.4707 12.456 8.0346 12.1279L7.13267 13.3264ZM4.80034 24.1543C5.59059 24.4029 6.43273 23.9638 6.68132 23.1736C6.92991 22.3833 6.49081 21.5412 5.70056 21.2926L4.80034 24.1543ZM12.3192 3.33576C13.1194 3.55017 13.9419 3.0753 14.1563 2.2751C14.3708 1.4749 13.8959 0.652395 13.0957 0.437982L12.3192 3.33576ZM8.34113 2.25005L7.71886 0.885205V0.885206L8.34113 2.25005ZM5.20347 5.30812L6.55188 5.96523L5.20347 5.30812ZM28.5016 21.2165C28.1653 20.7675 27.7957 20.3404 27.3944 19.9391L25.2731 22.0605C25.573 22.3604 25.8492 22.6796 26.1005 23.015L28.5016 21.2165ZM27.3944 19.9391C25.1683 17.713 22.149 16.4624 19.0008 16.4624V19.4624C21.3533 19.4624 23.6096 20.3969 25.2731 22.0605L27.3944 19.9391ZM19.0008 16.4624C15.8526 16.4624 12.8333 17.713 10.6072 19.9391L12.7285 22.0605C14.392 20.3969 16.6482 19.4624 19.0008 19.4624V16.4624ZM10.6072 19.9391C10.2059 20.3404 9.83629 20.7675 9.49996 21.2165L11.9011 23.015C12.1523 22.6796 12.4285 22.3604 12.7285 22.0605L10.6072 19.9391ZM15.2971 29.8328H22.7045V26.8328H15.2971V29.8328ZM9.49996 21.2165C8.75683 22.2086 8.41101 23.308 8.47203 24.4131C8.53218 25.5023 8.98041 26.4815 9.62679 27.276C10.9003 28.8413 13.044 29.8328 15.2971 29.8328V26.8328C13.8683 26.8328 12.61 26.1892 11.9539 25.3827C11.6355 24.9913 11.4869 24.6004 11.4675 24.2477C11.4489 23.9109 11.5405 23.4963 11.9011 23.015L9.49996 21.2165ZM26.1005 23.015C26.461 23.4964 26.5527 23.9109 26.5341 24.2477C26.5146 24.6004 26.3661 24.9913 26.0477 25.3827C25.3916 26.1892 24.1333 26.8328 22.7045 26.8328V29.8328C24.9576 29.8328 27.1013 28.8413 28.3748 27.276C29.0212 26.4815 29.4694 25.5023 29.5295 24.4131C29.5906 23.308 29.2447 22.2086 28.5016 21.2165L26.1005 23.015ZM23.9822 11.4808C23.9822 14.2321 21.7519 16.4624 19.0008 16.4624V19.4624C23.4089 19.4624 26.9822 15.8888 26.9822 11.4808H23.9822ZM19.0008 16.4624C16.2496 16.4624 14.0193 14.232 14.0193 11.4808H11.0193C11.0193 15.8889 14.5927 19.4624 19.0008 19.4624V16.4624ZM14.0193 11.4808C14.0193 8.72963 16.2495 6.49935 19.0007 6.49935V3.49935C14.5927 3.49935 11.0193 7.07278 11.0193 11.4808H14.0193ZM19.0007 6.49935C21.7519 6.49935 23.9822 8.72963 23.9822 11.4808H26.9822C26.9822 7.07278 23.4088 3.49935 19.0007 3.49935V6.49935ZM36.6655 15.8966C36.3292 15.4476 35.9596 15.0205 35.5583 14.6192L33.437 16.7405C33.7369 17.0405 34.0131 17.3596 34.2644 17.6951L36.6655 15.8966ZM35.5583 14.6192C34.3668 13.4277 32.9481 12.5157 31.4041 11.9253L30.3327 14.7275C31.4866 15.1687 32.5466 15.8502 33.437 16.7405L35.5583 14.6192ZM34.2644 17.6951C34.8175 18.4335 34.788 19.0772 34.4884 19.6474C34.1448 20.3013 33.3714 20.9557 32.3005 21.2926L33.2007 24.1543C34.8705 23.6291 36.3618 22.5315 37.1441 21.0429C37.9703 19.4707 37.9277 17.5816 36.6655 15.8966L34.2644 17.6951ZM25.6818 3.33576C26.7989 3.03643 27.9854 3.13512 29.0377 3.61489L30.2822 0.885206C28.5962 0.116508 26.6952 -0.0416058 24.9054 0.437982L25.6818 3.33576ZM29.0377 3.61489C30.09 4.09465 30.9426 4.92561 31.4492 5.96523L34.146 4.651C33.3343 2.98528 31.9682 1.6539 30.2822 0.885206L29.0377 3.61489ZM31.4492 5.96523C31.9558 7.00486 32.085 8.18837 31.8144 9.31279L34.7312 10.0146C35.1646 8.21298 34.9578 6.31672 34.146 4.651L31.4492 5.96523ZM31.8144 9.31279C31.5439 10.4372 30.8905 11.4325 29.9665 12.1279L31.7703 14.5249C33.2509 13.4108 34.2977 11.8161 34.7312 10.0146L31.8144 9.31279ZM3.73667 17.6951C3.98794 17.3596 4.26413 17.0405 4.56408 16.7405L2.44276 14.6192C2.0415 15.0205 1.67188 15.4476 1.33555 15.8966L3.73667 17.6951ZM4.56408 16.7405C5.45443 15.8502 6.51449 15.1687 7.66839 14.7275L6.59694 11.9253C5.05298 12.5157 3.63423 13.4277 2.44276 14.6192L4.56408 16.7405ZM1.33555 15.8966C0.0734088 17.5816 0.03079 19.4707 0.85701 21.0429C1.63924 22.5315 3.1306 23.6291 4.80034 24.1543L5.70056 21.2926C4.62969 20.9557 3.85627 20.3013 3.51266 19.6474C3.21305 19.0772 3.18356 18.4335 3.73667 17.6951L1.33555 15.8966ZM13.0957 0.437982C11.3058 -0.0416059 9.40488 0.116508 7.71886 0.885205L8.96339 3.61489C10.0157 3.13512 11.2021 3.03643 12.3192 3.33576L13.0957 0.437982ZM7.71886 0.885206C6.03284 1.6539 4.66681 2.98528 3.85506 4.651L6.55188 5.96523C7.05851 4.92561 7.91109 4.09465 8.96339 3.61489L7.71886 0.885206ZM3.85506 4.651C3.04332 6.31672 2.83643 8.21298 3.26989 10.0146L6.18665 9.31279C5.91612 8.18837 6.04524 7.00486 6.55188 5.96523L3.85506 4.651ZM3.26989 10.0146C3.70334 11.8161 4.75014 13.4108 6.23073 14.5249L8.0346 12.1279C7.11052 11.4325 6.45718 10.4372 6.18665 9.31279L3.26989 10.0146Z" fill="#171717"/>
</svg>
